<?xml version="1.0" standalone="no"?>
<!DOCTYPE svg PUBLIC "-//W3C//DTD SVG 20010904//EN"
 "http://www.w3.org/TR/2001/REC-SVG-20010904/DTD/svg10.dtd">
<svg version="1.0" xmlns="http://www.w3.org/2000/svg"
 width="399.000000pt" height="399.000000pt" viewBox="0 0 399.000000 399.000000"
 preserveAspectRatio="xMidYMid meet">

<g transform="translate(0.000000,399.000000) scale(0.100000,-0.100000)"
fill="#000000" stroke="none">
<path d="M1120 3608 c-44 -12 -96 -61 -111 -105 -22 -69 12 -153 79 -191 47
-26 89 -28 140 -6 l37 15 113 -117 112 -118 0 -168 0 -169 23 3 c22 3 22 4 22
180 l0 178 -122 122 -122 123 16 29 c21 40 13 123 -16 165 -38 53 -106 76
-171 59z"/>
<path d="M2875 3586 c-41 -18 -82 -68 -95 -116 -8 -30 -7 -49 6 -86 l16 -47
-176 -176 -176 -176 0 -118 0 -117 25 0 25 0 0 108 0 107 169 169 169 169 46
-18 c78 -30 158 2 195 79 27 55 26 93 -2 146 -39 74 -129 108 -202 76z"/>
<path d="M2120 3423 c-30 -11 -60 -47 -66 -78 -7 -40 17 -91 51 -107 l25 -11
0 -239 0 -238 25 0 25 0 0 237 0 237 31 25 c22 19 32 37 36 68 5 39 2 46 -30
78 -33 33 -60 41 -97 28z"/>
<path d="M1784 3229 c-25 -13 -54 -60 -54 -89 0 -32 25 -74 54 -90 l26 -13 0
-144 0 -143 25 0 25 0 0 150 c0 123 3 150 14 150 22 0 56 49 56 81 0 81 -76
131 -146 98z"/>
<path d="M3264 2862 c-75 -35 -112 -131 -80 -207 l17 -39 -58 -58 -57 -58
-173 0 c-163 0 -173 -1 -173 -19 0 -23 30 -27 228 -30 l133 -2 69 66 68 66 47
-15 c107 -37 205 36 205 152 0 118 -119 194 -226 144z"/>
<path d="M1300 2690 c-20 -20 -20 -33 -20 -688 0 -588 2 -670 16 -690 l15 -22
672 0 c593 0 675 2 695 16 l22 15 0 675 c0 661 0 674 -20 694 -20 20 -33 20
-690 20 -657 0 -670 0 -690 -20z m1305 -689 l0 -613 -613 -2 -612 -1 0 612 0
613 548 2 c301 2 576 3 612 3 l65 0 0 -614z"/>
<path d="M1509 2516 c-64 -44 -64 -44 -64 -521 0 -414 1 -431 20 -465 12 -19
36 -43 55 -55 34 -19 50 -20 470 -20 420 0 436 1 470 20 19 12 43 36 55 55 19
34 20 50 20 470 0 484 1 479 -68 520 -30 19 -53 20 -477 20 l-445 0 -36 -24z
m239 -183 c3 -20 -1 -22 -55 -25 -57 -3 -58 -4 -61 -34 -3 -33 13 -44 66 -44
17 0 22 -6 22 -25 0 -23 -4 -25 -45 -25 -45 0 -45 0 -45 -35 l0 -35 60 0 c57
0 60 -1 60 -25 0 -25 -1 -25 -85 -25 l-85 0 0 150 0 151 83 -3 c76 -3 82 -5
85 -25z m192 7 c11 -11 20 -33 20 -50 0 -25 -4 -30 -24 -30 -18 0 -25 6 -28
23 -2 17 -10 22 -33 22 l-30 0 -3 -98 -3 -98 33 3 c25 2 34 8 36 26 3 16 10
22 28 22 20 0 24 -5 24 -32 0 -48 -24 -68 -85 -68 -85 0 -90 9 -90 145 0 111
1 118 24 136 32 26 104 26 131 -1z m120 -45 l0 -65 30 0 30 0 0 66 0 65 28 -3
27 -3 3 -147 3 -148 -31 0 -30 0 0 60 0 60 -30 0 -30 0 0 -60 0 -60 -30 0 -30
0 0 150 0 150 30 0 30 0 0 -65z m320 45 c18 -18 20 -33 20 -132 0 -136 -7
-148 -85 -148 -83 0 -89 10 -93 139 -4 107 -3 111 22 136 33 33 105 36 136 5z
m-309 -399 c17 -20 19 -40 19 -162 l0 -139 -35 0 -35 0 0 55 0 56 -92 -3 -93
-3 -3 -53 -3 -53 -32 3 -32 3 -3 115 c-4 130 8 186 41 200 12 5 73 9 135 7
106 -2 115 -4 133 -26z m139 -137 l0 -165 -32 3 -33 3 -2 150 c-1 83 0 156 2
163 3 6 18 12 35 12 l30 0 0 -166z"/>
<path d="M2287 2303 c-4 -3 -7 -49 -7 -100 l0 -94 33 3 32 3 3 75 c4 97 -2
120 -32 120 -12 0 -26 -3 -29 -7z"/>
<path d="M1837 1893 c-4 -3 -7 -21 -7 -40 l0 -33 95 0 95 0 0 40 0 40 -88 0
c-49 0 -92 -3 -95 -7z"/>
<path d="M470 2649 c-59 -24 -100 -85 -100 -149 0 -79 45 -139 121 -161 31
-10 47 -9 90 5 l52 17 111 -110 111 -110 180 -1 c99 0 186 -1 193 0 6 0 12 9
12 20 0 19 -7 20 -182 20 l-181 0 -109 108 -109 107 17 40 c54 130 -77 265
-206 214z"/>
<path d="M914 2569 c-25 -13 -54 -60 -54 -89 0 -50 51 -100 101 -100 29 0 77
27 89 50 9 16 23 20 98 22 82 3 87 4 90 26 3 21 1 22 -88 22 -87 0 -91 1 -102
26 -21 45 -86 66 -134 43z"/>
<path d="M3151 2234 c-17 -14 -31 -32 -31 -40 0 -12 -33 -14 -190 -14 -183 0
-190 -1 -190 -20 0 -22 4 -22 247 -20 l113 1 40 -42 c37 -39 42 -41 82 -36 56
8 88 43 88 98 0 86 -93 129 -159 73z"/>
<path d="M713 1920 c-78 -47 -37 -180 56 -180 34 0 72 23 88 53 l15 29 181 -3
182 -4 3 23 3 22 -186 0 -185 0 -12 26 c-13 29 -55 54 -90 54 -13 0 -37 -9
-55 -20z"/>
<path d="M2740 1840 c0 -23 14 -25 228 -20 l133 2 111 -109 110 -109 -16 -49
c-39 -114 46 -224 164 -213 161 16 201 230 58 304 -35 18 -107 21 -136 5 -12
-6 -26 -11 -32 -11 -7 0 -62 50 -123 110 l-110 110 -194 0 c-186 0 -193 -1
-193 -20z"/>
<path d="M2949 1580 l-38 -40 -86 0 c-78 0 -85 -2 -85 -20 0 -18 7 -20 85 -20
l86 0 38 -40 c40 -43 69 -50 116 -28 69 31 71 139 4 174 -48 24 -79 18 -120
-26z"/>
<path d="M814 1479 l-62 -61 -37 12 c-125 41 -234 -38 -222 -163 4 -51 26 -88
71 -121 39 -29 133 -29 172 0 67 50 90 126 60 198 l-16 39 58 58 59 59 171 0
c165 0 172 1 172 20 0 19 -7 20 -183 20 l-182 0 -61 -61z"/>
<path d="M1485 1143 l-7 -109 -165 -167 -166 -167 -46 16 c-108 37 -211 -37
-211 -152 0 -121 122 -199 229 -145 74 38 107 121 78 201 l-16 45 180 181 180
181 -3 109 c-3 103 -4 109 -24 112 -21 3 -22 -2 -29 -105z"/>
<path d="M1810 1011 c0 -234 -1 -240 -21 -246 -25 -8 -59 -61 -59 -93 0 -89
108 -135 171 -73 23 23 29 38 29 72 0 35 -6 47 -35 74 l-35 33 -2 234 -3 233
-22 3 -23 3 0 -240z"/>
<path d="M2130 1108 l0 -143 -35 -28 c-42 -34 -54 -81 -31 -125 20 -38 44 -52
91 -52 52 0 95 44 95 98 0 42 -30 92 -55 92 -12 0 -15 29 -17 148 -3 144 -3
147 -25 150 -23 3 -23 3 -23 -140z"/>
<path d="M2450 1066 l0 -183 120 -120 120 -120 -15 -29 c-69 -132 88 -281 222
-211 69 36 102 133 70 208 -32 77 -137 120 -205 85 -43 -22 -50 -17 -166 106
l-96 103 0 173 0 172 -25 0 -25 0 0 -184z"/>
</g>
</svg>
